<?xml version="1.0" standalone="no"?>
<!DOCTYPE svg PUBLIC "-//W3C//DTD SVG 20010904//EN"
 "http://www.w3.org/TR/2001/REC-SVG-20010904/DTD/svg10.dtd">
<svg version="1.0" xmlns="http://www.w3.org/2000/svg"
 width="853.000000pt" height="480.000000pt" viewBox="0 0 853.000000 480.000000"
 preserveAspectRatio="xMidYMid meet">

<g transform="translate(0.000000,480.000000) scale(0.100000,-0.100000)"
fill="#000000" stroke="none">
<path d="M0 2400 l0 -2400 4265 0 4265 0 0 2400 0 2400 -4265 0 -4265 0 0
-2400z m3570 1550 c211 -11 367 -33 389 -55 20 -19 26 -142 9 -180 -29 -66
-200 -322 -240 -361 -24 -23 -80 -61 -126 -85 -82 -42 -83 -42 -210 -47 -139
-5 -117 -10 -307 69 -38 16 -117 42 -175 58 -130 36 -161 48 -284 105 -81 38
-114 61 -196 137 -119 111 -135 145 -104 231 18 50 23 55 89 88 69 35 70 35
240 41 294 10 712 9 915 -1z m2190 -80 c78 -12 93 -17 224 -78 104 -49 121
-63 152 -129 26 -53 26 -60 21 -187 -4 -107 -11 -150 -36 -234 -40 -132 -141
-325 -283 -540 -37 -57 -68 -109 -68 -115 0 -7 -20 -39 -45 -72 -25 -33 -45
-63 -45 -66 0 -4 -31 -39 -70 -78 -38 -40 -77 -85 -85 -101 -8 -16 -38 -59
-65 -95 -28 -37 -59 -83 -69 -104 -11 -21 -27 -44 -36 -51 -10 -8 -39 -46 -65
-85 -26 -38 -63 -86 -82 -107 -19 -20 -47 -56 -63 -80 -16 -23 -72 -94 -125
-157 -52 -63 -119 -144 -149 -180 -30 -36 -59 -70 -66 -76 -7 -5 -32 -37 -56
-69 -24 -33 -74 -92 -110 -130 -37 -39 -91 -99 -120 -133 -67 -78 -235 -206
-354 -270 -11 -6 -78 -37 -150 -69 -71 -31 -134 -60 -140 -64 -5 -4 -43 -17
-84 -29 -41 -13 -83 -28 -95 -36 -25 -16 -91 -35 -256 -76 -112 -27 -140 -30
-270 -29 -130 0 -150 3 -190 23 -39 20 -48 30 -67 83 -19 50 -22 80 -22 207
-1 163 16 276 65 423 28 85 36 113 82 274 32 116 72 235 101 302 46 107 94
213 151 333 26 55 58 125 70 155 12 30 30 75 40 100 39 92 71 179 86 231 13
46 74 179 104 229 5 8 15 29 24 45 48 97 90 173 105 190 10 11 31 43 47 70 15
28 45 72 66 98 21 27 38 53 38 58 0 5 31 55 68 112 38 56 77 120 87 142 24 53
106 175 117 175 5 0 13 11 18 25 22 57 203 117 438 146 97 12 204 25 237 29
91 12 837 4 925 -10z m-1190 -3180 c15 -29 2 -118 -25 -166 -33 -56 -100 -136
-128 -151 -22 -11 -25 -10 -37 12 -29 55 -107 50 -131 -8 -11 -25 -10 -34 4
-60 10 -16 16 -31 14 -33 -13 -13 -145 -36 -257 -44 -130 -9 -422 -12 -370 -3
123 21 230 65 348 145 40 27 91 55 113 63 48 17 124 68 165 112 17 18 36 33
43 33 6 0 38 20 70 45 78 59 109 75 148 75 22 0 36 -6 43 -20z"/>
<path d="M3050 3731 c-55 -12 -81 -30 -96 -68 -19 -43 -11 -68 35 -117 41 -44
114 -80 263 -131 196 -67 262 -42 371 137 57 95 48 150 -28 169 -51 12 -498
21 -545 10z m543 -56 c30 -13 20 -60 -25 -129 -56 -84 -104 -116 -175 -116
-30 0 -70 7 -91 16 -20 9 -66 25 -102 36 -89 28 -128 50 -173 96 -46 47 -45
70 3 95 32 17 58 18 290 14 140 -2 263 -7 273 -12z"/>
<path d="M3714 3570 c-11 -4 -27 -22 -34 -40 -36 -87 86 -141 127 -55 14 29
14 39 4 59 -7 13 -24 29 -38 35 -28 13 -31 13 -59 1z"/>
<path d="M4243 3622 c-39 -24 -30 -106 13 -122 52 -20 102 35 82 90 -11 30
-25 40 -58 40 -14 0 -30 -4 -37 -8z"/>
<path d="M4320 2573 c-125 -9 -292 -36 -349 -55 -72 -23 -113 -60 -157 -143
-15 -27 -57 -95 -92 -150 -36 -55 -77 -118 -91 -140 -43 -68 -108 -205 -142
-300 -18 -49 -51 -130 -74 -180 -81 -173 -104 -231 -155 -400 -79 -260 -86
-430 -21 -496 24 -23 37 -27 117 -33 80 -6 100 -4 194 23 124 34 174 52 255
90 33 15 71 32 85 36 44 13 172 108 231 170 124 130 398 471 492 610 25 39 61
86 79 105 34 36 98 125 98 135 0 3 17 32 39 63 59 88 127 221 145 284 9 32 17
95 18 140 3 114 -18 146 -124 194 -73 33 -86 35 -235 44 -155 9 -224 10 -313
3z m524 -85 c48 -22 85 -46 92 -60 20 -34 17 -153 -5 -225 -21 -68 -81 -183
-142 -275 -22 -31 -39 -60 -39 -63 0 -11 -63 -97 -90 -125 -14 -14 -57 -70
-95 -125 -86 -125 -127 -178 -294 -379 -251 -303 -277 -324 -540 -433 -145
-59 -255 -85 -361 -83 -118 1 -124 8 -128 145 -4 113 6 161 86 410 35 110 49
145 124 305 46 98 98 229 98 247 0 19 101 210 156 295 102 158 130 204 144
231 71 141 207 177 660 173 l255 -2 79 -36z"/>
<path d="M4854 1802 c-6 -4 -16 -17 -23 -29 -16 -30 8 -78 44 -87 31 -8 82 16
87 41 5 22 -9 65 -25 75 -15 10 -69 10 -83 0z"/>
</g>
</svg>
